<svg class="icon" viewBox="0 0 1024 1024" xmlns="http://www.w3.org/2000/svg" width="200" height="200"><defs><style/></defs><path d="M849.92 503.808L530.432 188.416c-6.144-6.144-16.384-6.144-22.528 0L268.288 425.984l-79.872 77.824c-6.144 6.144-6.144 16.384 0 22.528 6.144 6.144 16.384 6.144 22.528 0l53.248-51.2V737.28c0 34.816 28.672 63.488 63.488 63.488h112.64c8.192 0 16.384-6.144 16.384-16.384V643.072h143.36c8.192 0 16.384-6.144 16.384-16.384 0-8.192-6.144-16.384-16.384-16.384H440.32c-8.192 0-16.384 6.144-16.384 16.384V768H327.68c-18.432 0-32.768-14.336-32.768-30.72V442.368l223.232-221.184 307.2 303.104c4.096 4.096 8.192 4.096 12.288 4.096s8.192-2.048 12.288-4.096c6.144-4.096 6.144-14.336 0-20.48zm-92.16 43.008c-8.192 0-16.384 6.144-16.384 16.384v174.08c0 16.384-14.336 30.72-32.768 30.72h-112.64c-8.192 0-16.384 6.144-16.384 16.384 0 8.192 6.144 16.384 16.384 16.384h112.64c34.816 0 63.488-28.672 63.488-63.488V563.2c2.048-10.24-4.096-16.384-14.336-16.384z" fill="#fff"/></svg>